<?xml version="1.0" encoding="utf-8"?>
<!-- Generator: Adobe Illustrator 18.0.0, SVG Export Plug-In . SVG Version: 6.00 Build 0)  -->
<!DOCTYPE svg PUBLIC "-//W3C//DTD SVG 1.1//EN" "http://www.w3.org/Graphics/SVG/1.1/DTD/svg11.dtd">
<svg version="1.1" id="Layer_1" xmlns="http://www.w3.org/2000/svg" xmlns:xlink="http://www.w3.org/1999/xlink" x="0px" y="0px"
	 viewBox="0 0 710 580" enable-background="new 0 0 710 580" xml:space="preserve">
<rect x="46.9" y="116.9" fill="none" width="616.5" height="416.1"/>
<g>
	<g>
		<path fill="#AFABA8" d="M3.9,3.5V576h701.3V3.5H3.9z M230.3,31.5c17.1,0,31,13.9,31,31c0,17.1-13.9,31-31,31
			c-17.1,0-31-13.9-31-31C199.3,45.3,213.1,31.5,230.3,31.5z M146.6,31.5c17.1,0,31,13.9,31,31c0,17.1-13.9,31-31,31
			c-17.1,0-31-13.9-31-31C115.6,45.3,129.5,31.5,146.6,31.5z M31.9,62.4c0-17.1,13.9-31,31-31s31,13.9,31,31c0,17.1-13.9,31-31,31
			S31.9,79.6,31.9,62.4z M663.4,533.1H46.9V116.9h616.5V533.1z"/>
	</g>
</g>
<polygon id="cursor-icon" fill="#AFABA8" points="290.2,189.9 448.8,314.2 381,325.7 424.1,413.6 384.6,432.9 341.3,344.2 
	290.2,390.6 "/>
</svg>
